<?xml version="1.0" encoding="UTF-8"?>
<svg version="1.1" xmlns="http://www.w3.org/2000/svg" width="252" height="387">
<path d="M0 0 C83.16 0 166.32 0 252 0 C252 127.71 252 255.42 252 387 C168.84 387 85.68 387 0 387 C0 259.29 0 131.58 0 0 Z " fill="#000000" transform="translate(0,0)"/>
<path d="M0 0 C3 1 3 1 4.8671875 4.28125 C5.54581528 5.68300849 6.21455341 7.08958417 6.875 8.5 C7.58840808 9.97595521 8.30324212 11.45122207 9.01953125 12.92578125 C9.36193848 13.63557129 9.7043457 14.34536133 10.05712891 15.07666016 C11.50785509 18.03596127 13.11367537 20.89571968 14.73828125 23.76171875 C17.5756034 28.79511067 20.27699873 33.9041165 23 39 C23.36174316 39.67691895 23.72348633 40.35383789 24.09619141 41.05126953 C37.20550968 65.61652904 37.20550968 65.61652904 39 71 C19.53 71.33 0.06 71.66 -20 72 C-23.30579497 80.1726061 -23.30579497 80.1726061 -25.9375 88.4375 C-26.26621094 89.62214844 -26.59492187 90.80679688 -26.93359375 92.02734375 C-28.36738165 97.33492172 -29.76141937 102.65323503 -31.14208984 107.97485352 C-32.35707517 112.64007966 -33.66495208 117.26035156 -35.0625 121.875 C-37.02050508 128.5937997 -38.30790648 135.39299298 -39.51782227 142.27880859 C-40.30653897 146.6927433 -41.25663944 150.90332366 -42.5859375 155.1875 C-44.35882507 161.52754262 -44.55830677 167.74693855 -44.5559082 174.30541992 C-44.56245794 176.29969305 -44.61799048 178.29360734 -44.67382812 180.28710938 C-44.7172982 190.05821641 -43.11996677 200.3642076 -36.26977539 207.90454102 C-28.71543981 213.64767019 -20.06058564 213.66606406 -11 213 C-5.51470233 211.86871677 -1.33077327 208.39317509 2 204 C5.07521974 199.00737706 5.51839164 194.82636771 5.6875 189.125 C5.72166016 188.34125 5.75582031 187.5575 5.79101562 186.75 C5.87280412 184.83381252 5.9380946 182.91693285 6 181 C9.63 181 13.26 181 17 181 C18.00307456 206.45580323 18.00307456 206.45580323 12 213 C11.01 213.33 10.02 213.66 9 214 C8.71125 214.598125 8.4225 215.19625 8.125 215.8125 C5.56652343 220.78731555 0.4016394 223.3045447 -4.6484375 225.2421875 C-9.18294042 226.26747138 -13.55053355 226.36656378 -18.1875 226.375 C-19.4705603 226.37741699 -19.4705603 226.37741699 -20.77954102 226.37988281 C-30.90215466 226.20289685 -40.78507391 223.11100546 -48.15625 215.88671875 C-60.79595681 200.38165467 -59.34044204 176.93100307 -57.46484375 158.0390625 C-56.27836816 147.63234372 -54.47219237 137.5597663 -51.66699219 127.46533203 C-50.8267479 124.35962675 -50.04298621 121.24117042 -49.2578125 118.12109375 C-48.63033956 115.64319593 -48.00273463 113.16533153 -47.375 110.6875 C-47.07368164 109.48706055 -46.77236328 108.28662109 -46.46191406 107.04980469 C-46.1728418 105.92348633 -45.88376953 104.79716797 -45.5859375 103.63671875 C-45.3286084 102.62311279 -45.0712793 101.60950684 -44.80615234 100.56518555 C-44 98 -44 98 -42 95 C-41.29178847 92.31338378 -40.65274879 89.64954096 -40.0625 86.9375 C-39.71168282 85.39536614 -39.35882632 83.85369475 -39.00390625 82.3125 C-38.74697998 81.19681641 -38.74697998 81.19681641 -38.48486328 80.05859375 C-36.96624614 73.61097051 -35.06754968 67.76914432 -31.9609375 61.91796875 C-31.017284 60.03449774 -30.31115695 58.17735516 -29.625 56.1875 C-27.68398196 50.81560141 -24.79160658 45.96590458 -22 41 C-21.08096303 39.31378973 -20.16432011 37.62627256 -19.25 35.9375 C-17.39054675 32.52197797 -15.51019275 29.11918009 -13.609375 25.7265625 C-8.86115845 17.24452928 -4.2246509 8.7584226 0 0 Z " fill="#F6F6F6" transform="translate(132,9)"/>
<path d="M0 0 C0.7528125 0.32484375 1.505625 0.6496875 2.28125 0.984375 C6.31497261 2.83079732 6.31497261 2.83079732 8 4 C8.495 5.485 8.495 5.485 9 7 C9.66 7 10.32 7 11 7 C12.40234375 8.58203125 12.40234375 8.58203125 13.9375 10.8125 C14.44152344 11.52019531 14.94554687 12.22789062 15.46484375 12.95703125 C20.4075198 22.75434587 20.486896 32.84691625 20.375 43.5625 C20.37167664 44.31301636 20.36835327 45.06353271 20.3649292 45.83679199 C20.30116778 58.09010111 19.93228814 70.2823866 15.98828125 82.0078125 C14.88235063 85.35620323 14.21356804 88.65999382 13.5625 92.125 C10.0067603 110.48985954 10.0067603 110.48985954 7 115 C6.48118644 116.93991157 5.96794172 118.88190731 5.50927734 120.83691406 C-0.54514227 146.55223418 -12.13870879 170.54165427 -24 194 C-25.65553903 197.2933243 -27.29136857 200.59487988 -28.90234375 203.91015625 C-29.58064557 205.2943118 -30.25903224 206.67842578 -30.9375 208.0625 C-31.27201172 208.75666016 -31.60652344 209.45082031 -31.95117188 210.16601562 C-33.93060144 214.18208369 -36.03519338 217.5974367 -39 221 C-45.35390468 209.61410053 -51.5943207 198.23182876 -56.96850586 186.34448242 C-58.98259957 181.93677084 -61.25307717 177.88459339 -63.87329102 173.80859375 C-65.30039378 171.51780778 -66.42314417 169.16042249 -67.5 166.6875 C-67.90605469 165.76453125 -68.31210938 164.8415625 -68.73046875 163.890625 C-69.14941406 162.93671875 -69.56835938 161.9828125 -70 161 C-71.35718357 158.06997081 -72.71741591 155.1414188 -74.08203125 152.21484375 C-75 150 -75 150 -75 148 C-55.86 148 -36.72 148 -17 148 C-16.505 145.03 -16.505 145.03 -16 142 C-15.2443614 139.3770099 -14.46142053 136.78388874 -13.625 134.1875 C-13.41617188 133.52685547 -13.20734375 132.86621094 -12.9921875 132.18554688 C-11.87006518 128.65154579 -10.70839301 125.13316536 -9.51953125 121.62109375 C-7.88931517 116.74561762 -6.46130642 111.82112438 -5.0625 106.875 C-4.67227661 105.50130249 -4.67227661 105.50130249 -4.27416992 104.09985352 C-2.10127002 96.42048269 -0.0164087 88.72203154 2 81 C2.27714844 80.00226563 2.55429688 79.00453125 2.83984375 77.9765625 C7.77366582 59.66496418 11.07736843 36.15473686 2.3125 18.625 C-1.2735109 14.55439304 -4.32440193 11.45760828 -9.94921875 10.75732422 C-20.34287737 9.97693855 -20.34287737 9.97693855 -30 13 C-31.84268713 15.25919438 -31.84268713 15.25919438 -33.25 17.9375 C-33.75015625 18.81277344 -34.2503125 19.68804687 -34.765625 20.58984375 C-36.61562727 24.20203173 -37.15434909 27.10034191 -37.31640625 31.10546875 C-37.37924805 32.57983398 -37.37924805 32.57983398 -37.44335938 34.08398438 C-37.48267578 35.10814453 -37.52199219 36.13230469 -37.5625 37.1875 C-37.62727539 38.74114258 -37.62727539 38.74114258 -37.69335938 40.32617188 C-37.79944366 42.8839819 -37.90150146 45.44188845 -38 48 C-39.81242052 48.02687279 -41.62495233 48.04633715 -43.4375 48.0625 C-44.44683594 48.07410156 -45.45617187 48.08570313 -46.49609375 48.09765625 C-49 48 -49 48 -50 47 C-50.25531383 43.34064478 -50.18524466 39.6671861 -50.1875 36 C-50.19974609 34.98292969 -50.21199219 33.96585938 -50.22460938 32.91796875 C-50.24103809 24.38598869 -49.89547912 16.71864136 -44.625 9.6875 C-44.03976563 8.88699219 -43.45453125 8.08648437 -42.8515625 7.26171875 C-32.91499888 -4.87598238 -13.87565487 -6.49733046 0 0 Z " fill="#F5F5F5" transform="translate(161,157)"/>
<path d="M0 0 C3.69737342 2.46491561 4.8492584 5.30039918 6.6875 9.1875 C7.39933976 10.6518702 8.11292277 12.1153941 8.828125 13.578125 C9.18970703 14.31998047 9.55128906 15.06183594 9.92382812 15.82617188 C11.5279577 19.0664554 13.22355126 22.25426871 14.9375 25.4375 C15.42476562 26.34399292 15.42476562 26.34399292 15.921875 27.26879883 C16.59416592 28.51933216 17.26669589 29.76973701 17.93945312 31.02001953 C20.26041 35.35311351 22.54509814 39.70560267 24.83544922 44.05493164 C27.20361847 48.53861679 29.64020605 52.97098801 32.22265625 57.3359375 C33 59 33 59 33 62 C12.21 62 -8.58 62 -30 62 C-29.07416641 57.37083206 -27.62845525 53.87255113 -25.5 49.75 C-25.14760254 49.05688721 -24.79520508 48.36377441 -24.43212891 47.6496582 C-19.38483133 37.76675252 -14.20416108 27.94935897 -8.8125 18.25 C-5.54973398 12.31852901 -2.76815809 6.17436681 0 0 Z " fill="#6B239D" transform="translate(132,15)"/>
<path d="M0 0 C20.13 0 40.26 0 61 0 C60.11854883 4.40725587 59.09875881 7.09675572 57.0625 11 C55.5929418 13.83079515 54.15976624 16.59219201 52.99609375 19.5625 C52 22 52 22 50.49609375 24.47265625 C48.94911378 27.08596184 48.01381256 29.55906501 47.0625 32.4375 C45.52402647 36.81981853 43.59801354 40.14234353 41 44 C40.13720231 45.98746688 39.30680633 47.98915242 38.5 50 C36.71912513 54.43288976 34.8611988 58.18506827 32 62 C28.89424207 60.44712103 28.06399821 57.39193153 26.625 54.375 C23.80888197 48.57593504 23.80888197 48.57593504 20.6875 42.9375 C19 40 19 40 18.19921875 37.8984375 C16.45395652 33.6802467 14.27353152 29.71208164 12.125 25.6875 C9.31204062 20.39963719 6.52168439 15.10782051 3.86572266 9.73901367 C3.01242207 8.02495274 2.13137537 6.32479535 1.25 4.625 C0 2 0 2 0 0 Z " fill="#6C239F" transform="translate(91,309)"/>
<path d="M0 0 C3.69737342 2.46491561 4.8492584 5.30039918 6.6875 9.1875 C7.39933976 10.6518702 8.11292277 12.1153941 8.828125 13.578125 C9.18970703 14.31998047 9.55128906 15.06183594 9.92382812 15.82617188 C11.5279577 19.0664554 13.22355126 22.25426871 14.9375 25.4375 C15.42476562 26.34399292 15.42476562 26.34399292 15.921875 27.26879883 C16.59416592 28.51933216 17.26669589 29.76973701 17.93945312 31.02001953 C20.26041 35.35311351 22.54509814 39.70560267 24.83544922 44.05493164 C27.20361847 48.53861679 29.64020605 52.97098801 32.22265625 57.3359375 C33 59 33 59 33 62 C12.21 62 -8.58 62 -30 62 C-29.07416641 57.37083206 -27.62845525 53.87255113 -25.5 49.75 C-25.14760254 49.05688721 -24.79520508 48.36377441 -24.43212891 47.6496582 C-19.38483133 37.76675252 -14.20416108 27.94935897 -8.8125 18.25 C-5.54973398 12.31852901 -2.76815809 6.17436681 0 0 Z M0 9 C-0.598125 10.175625 -1.19625 11.35125 -1.8125 12.5625 C-2.31716797 13.55443359 -2.31716797 13.55443359 -2.83203125 14.56640625 C-3.72286376 16.42255559 -4.54699278 18.310869 -5.33984375 20.2109375 C-7.21691049 24.63219624 -9.4832022 28.83137589 -11.75 33.0625 C-15.97928131 40.97556614 -19.98425266 48.96850531 -24 57 C-7.5 57 9 57 26 57 C25.12078191 53.48312765 24.01044559 51.12722059 22.1328125 48.07421875 C20.85882196 45.74149815 19.87298899 43.32287663 18.84326172 40.87524414 C17.43989935 37.75444902 15.72544455 34.82641831 14 31.875 C13.65710938 31.28074219 13.31421875 30.68648437 12.9609375 30.07421875 C11.45534458 27.4710371 9.92940534 24.88584693 8.34765625 22.328125 C7.11121767 20.19213255 6.23611381 18.20238881 5.4375 15.875 C4.5022855 13.15917937 3.63930107 11.4589516 2 9 C1.34 9 0.68 9 0 9 Z " fill="#1B1A1F" transform="translate(132,15)"/>
<path d="M0 0 C20.13 0 40.26 0 61 0 C60.11854883 4.40725587 59.09875881 7.09675572 57.0625 11 C55.5929418 13.83079515 54.15976624 16.59219201 52.99609375 19.5625 C52 22 52 22 50.49609375 24.47265625 C48.94911378 27.08596184 48.01381256 29.55906501 47.0625 32.4375 C45.52402647 36.81981853 43.59801354 40.14234353 41 44 C40.13720231 45.98746688 39.30680633 47.98915242 38.5 50 C36.71912513 54.43288976 34.8611988 58.18506827 32 62 C28.89424207 60.44712103 28.06399821 57.39193153 26.625 54.375 C23.80888197 48.57593504 23.80888197 48.57593504 20.6875 42.9375 C19 40 19 40 18.19921875 37.8984375 C16.45395652 33.6802467 14.27353152 29.71208164 12.125 25.6875 C9.31204062 20.39963719 6.52168439 15.10782051 3.86572266 9.73901367 C3.01242207 8.02495274 2.13137537 6.32479535 1.25 4.625 C0 2 0 2 0 0 Z M7 5 C11.86778652 16.74861678 11.86778652 16.74861678 17.81152344 27.10742188 C20.31925013 31.10082724 22.15770027 35.47247673 24.125 39.75 C24.97750302 41.60092998 25.83412907 43.44996778 26.6953125 45.296875 C27.06672363 46.10479492 27.43813477 46.91271484 27.82080078 47.74511719 C29.01799023 50.03440119 30.3949839 51.98058111 32 54 C32.33 52.68 32.66 51.36 33 50 C33.66 50 34.32 50 35 50 C35.235979 49.47269287 35.47195801 48.94538574 35.71508789 48.40209961 C48.56163431 19.71760111 48.56163431 19.71760111 53.4375 10.1875 C55.14671907 7.29233775 55.14671907 7.29233775 55 5 C39.16 5 23.32 5 7 5 Z " fill="#141019" transform="translate(91,309)"/>
<path d="M0 0 C8.58 0 17.16 0 26 0 C24.68 2.64 23.36 5.28 22 8 C21.26647339 9.63702406 20.54931851 11.28163557 19.859375 12.9375 C19.51132813 13.76894531 19.16328125 14.60039062 18.8046875 15.45703125 C18.45664063 16.29621094 18.10859375 17.13539063 17.75 18 C17.38648437 18.87011719 17.02296875 19.74023438 16.6484375 20.63671875 C15.76313347 22.75678893 14.88037286 24.87787853 14 27 C11.3712494 25.6856247 11.1810584 24.49434485 10.0625 21.8125 C8.95013206 19.20743243 7.82999381 16.65998762 6.5625 14.125 C4.24070935 9.48141871 2.14833318 4.72633299 0 0 Z " fill="#09080F" transform="translate(109,321)"/>
<path d="M0 0 C2.55797541 2.29182768 3.91156974 4.53117092 5.375 7.625 C7.4291869 11.8765444 9.63567897 15.99449087 11.984375 20.08984375 C13 22 13 22 14 25 C5.42 25 -3.16 25 -12 25 C-10.65926364 20.97779092 -9.72643415 18.23013517 -7.6875 14.75 C-4.92707392 9.92746992 -2.44689053 4.98749176 0 0 Z " fill="#0A080F" transform="translate(133,40)"/>
<path d="M0 0 C3.69711097 2.46474064 4.84976682 5.30025026 6.6875 9.1875 C7.39135838 10.63892955 8.09713778 12.08942884 8.8046875 13.5390625 C9.16530273 14.27930664 9.52591797 15.01955078 9.89746094 15.78222656 C11.92666764 19.8640055 14.1090135 23.86401202 16.29760742 27.86206055 C18.45148104 31.83607756 20.40193773 35.77470267 22 40 C21.505 40.99 21.505 40.99 21 42 C17.61647771 40.87215924 17.4459123 40.54257785 15.84375 37.578125 C15.46089844 36.88203125 15.07804687 36.1859375 14.68359375 35.46875 C14.29300781 34.7365625 13.90242188 34.004375 13.5 33.25 C12.71929163 31.81741303 11.93805323 30.38511476 11.15625 28.953125 C10.78677246 28.26911621 10.41729492 27.58510742 10.03662109 26.88037109 C9.17162854 25.31132431 8.25230396 23.77238744 7.3203125 22.2421875 C6.08497294 20.14430315 5.19142335 18.16277972 4.375 15.875 C4.13523438 15.21242188 3.89546875 14.54984375 3.6484375 13.8671875 C3.08649574 12.24906604 2.54167293 10.62501878 2 9 C1.34 9 0.68 9 0 9 C-0.1340625 9.58394531 -0.268125 10.16789062 -0.40625 10.76953125 C-3.04769354 20.69232245 -9.16700469 30.00525872 -14 39 C-14.66 39 -15.32 39 -16 39 C-16 38.01 -16 37.02 -16 36 C-16.66 35.67 -17.32 35.34 -18 35 C-16.2144209 31.53849044 -14.42051433 28.08136509 -12.625 24.625 C-11.86316406 23.14773437 -11.86316406 23.14773437 -11.0859375 21.640625 C-10.59609375 20.69960938 -10.10625 19.75859375 -9.6015625 18.7890625 C-9.15119629 17.91975098 -8.70083008 17.05043945 -8.23681641 16.15478516 C-7 14 -7 14 -5 12 C-3.21063882 8.04849407 -1.58973224 4.03547414 0 0 Z " fill="#110F14" transform="translate(132,15)"/>
<path d="M0 0 C2.31 0 4.62 0 7 0 C7 13.53 7 27.06 7 41 C4.69 41 2.38 41 0 41 C0 27.47 0 13.94 0 0 Z " fill="#F8F8F8" transform="translate(116,246)"/>
<path d="M0 0 C2.31 0 4.62 0 7 0 C7 13.2 7 26.4 7 40 C4.69 40 2.38 40 0 40 C0 26.8 0 13.6 0 0 Z " fill="#FEFEFE" transform="translate(130,104)"/>
<path d="M0 0 C16.83 0 33.66 0 51 0 C51 1.65 51 3.3 51 5 C34.17 5 17.34 5 0 5 C0 3.35 0 1.7 0 0 Z " fill="#65278F" transform="translate(14,185)"/>
<path d="M0 0 C16.5 0 33 0 50 0 C50 1.65 50 3.3 50 5 C33.5 5 17 5 0 5 C0 3.35 0 1.7 0 0 Z " fill="#FEFEFE" transform="translate(14,201)"/>
<path d="M0 0 C15.84 0 31.68 0 48 0 C48 1.65 48 3.3 48 5 C32.16 5 16.32 5 0 5 C0 3.35 0 1.7 0 0 Z " fill="#FEFEFE" transform="translate(192,201)"/>
<path d="M0 0 C15.84 0 31.68 0 48 0 C48 1.65 48 3.3 48 5 C32.16 5 16.32 5 0 5 C0 3.35 0 1.7 0 0 Z " fill="#662790" transform="translate(192,185)"/>
<path d="M0 0 C15.84 0 31.68 0 48 0 C47.67 1.65 47.34 3.3 47 5 C45 6.1875 45 6.1875 43 7 C42.67 7.66 42.34 8.32 42 9 C42.33 7.35 42.66 5.7 43 4 C28.81 4 14.62 4 0 4 C0 2.68 0 1.36 0 0 Z " fill="#070708" transform="translate(104,309)"/>
<path d="M0 0 C-0.99 3.3 -1.98 6.6 -3 10 C-3.33 9.34 -3.66 8.68 -4 8 C-4.99 8.33 -5.98 8.66 -7 9 C-4.4 0 -4.4 0 0 0 Z " fill="#E2E2E2" transform="translate(155,311)"/>
<path d="M0 0 C-0.6875 2.4375 -0.6875 2.4375 -2 5 C-4.625 5.8125 -4.625 5.8125 -7 6 C-5.81636731 2.44910192 -3.99368042 0 0 0 Z " fill="#1A1B1E" transform="translate(139,338)"/>
</svg>
